<?xml version="1.0" standalone="no"?>
<!DOCTYPE svg PUBLIC "-//W3C//DTD SVG 1.1//EN" "http://www.w3.org/Graphics/SVG/1.1/DTD/svg11.dtd" >
<svg xmlns="http://www.w3.org/2000/svg" xmlns:xlink="http://www.w3.org/1999/xlink" version="1.1">
<metadata></metadata>
<defs>
<font id="rammetto_oneregular" horiz-adv-x="0" >
<font-face units-per-em="2048" ascent="1638" descent="-410" />
<missing-glyph horiz-adv-x="512" />
<glyph unicode="&#xfb01;" horiz-adv-x="1882" d="M68 926v317h114v252q0 167 132.5 263.5t328.5 96.5q256 0 438 -102v-299q-40 14 -85 14q-90 0 -149 -61t-67 -164h998v-1243h-578v926h-420v-926h-598v926h-114zM1202 1606q0 103 89 189.5t221 86.5t199 -70t67 -175t-83 -188t-223 -83t-205 68.5t-65 171.5z" />
<glyph unicode="&#xfb02;" horiz-adv-x="1896" d="M68 926v317h114v109q0 386 499 462q152 23 287 23q230 0 458.5 -38t349.5 -87v-1712h-578v1475q-102 32 -219 32q-238 0 -238 -172q0 -43 15 -92h307v-317h-283v-926h-598v926h-114z" />
<glyph unicode="&#xfb03;" horiz-adv-x="3052" d="M68 926v317h196v211q0 166 132 263t352 97.5t395 -102.5v-299q-49 14 -97 14q-87 0 -132.5 -49.5t-51.5 -134.5h443v252q-1 166 131 263t329 97q255 0 439 -102v-299q-40 14 -86 14q-90 0 -148.5 -60.5t-66.5 -164.5h1032v-1243h-568v926h-464v-926h-598v926h-443v-926 h-598v926h-196zM2337 1559q0 97 88.5 178t234.5 81.5t217 -61t70.5 -156.5t-91 -175t-238 -80t-214.5 58t-67 155z" />
<glyph unicode="&#xfb04;" horiz-adv-x="2834" d="M68 926v317h114v211q0 166 132 263t352 97.5t395 -102.5v-299q-49 14 -97 14q-87 0 -132.5 -49.5t-51.5 -134.5h381v109q0 386 499 462q152 23 288 23q226 0 433.5 -37.5t332.5 -87.5v-1712h-566v1475q-93 32 -190 32q-238 0 -238 -172q0 -43 15 -92h307v-317h-283v-926 h-598v926h-381v-926h-598v926h-114z" />
<glyph />
<glyph unicode="&#xd;" horiz-adv-x="1460" />
<glyph />
<glyph />
<glyph />
<glyph />
<glyph />
<glyph />
<glyph />
<glyph />
<glyph />
<glyph />
<glyph unicode="&#x9;" />
<glyph />
<glyph />
<glyph />
<glyph />
<glyph />
<glyph unicode=" "  horiz-adv-x="512" />
<glyph unicode="&#x09;" horiz-adv-x="512" />
<glyph unicode="&#xa0;" horiz-adv-x="512" />
<glyph unicode="!" horiz-adv-x="770" d="M100 1599h578l-103 -960h-372zM102 203q0 103 89 189.5t223 86.5q70 0 119 -19.5t81 -53.5q64 -66 64 -171t-83 -188t-223 -83.5t-205 68t-65 171.5z" />
<glyph unicode="&#x22;" horiz-adv-x="1317" d="M98 1597h516l-82 -753h-331zM698 1597h516l-81 -753h-332z" />
<glyph unicode="#" horiz-adv-x="2056" d="M76 381l41 299h176l37 262h-160l41 299h162l51 356h633l-82 -356h231l78 356h674l-133 -356h172l-82 -299h-201l-98 -262h225l-82 -299h-254l-141 -381h-428l82 381h-242l-88 -381h-489l53 381h-176zM844 680h239l58 262h-236z" />
<glyph unicode="$" horiz-adv-x="1382" d="M68 1101q0 146 44 235q122 247 502 296l9 170h153l-8 -162q201 -2 404 -42q43 -8 57 -13v-471q-267 57 -391 57q-47 0 -70 -15.5t-23 -31.5q0 -24 21.5 -42t85.5 -43t126 -50q211 -85 286 -218q64 -110 63.5 -262t-46.5 -248.5t-130 -162.5q-170 -132 -469 -135l-8 -168 h-154l8 172q-224 12 -364 60q-61 21 -92 45v473q4 -1 24 -9q112 -40 202.5 -63t154.5 -22q100 0 100 61q0 46 -76 88q-34 18 -77.5 39t-89.5 48q-242 144 -242 414z" />
<glyph unicode="%" horiz-adv-x="3320" d="M59 1042q0 243 154 411q171 187 462 187t463 -187q154 -167 154 -411t-154 -411q-172 -187 -463 -187t-453.5 177.5t-162.5 420.5zM489 1045q-1 -101 49 -175.5t137.5 -74t136 73t48.5 171.5q0 162 -104 228q-34 22 -80.5 22t-81.5 -21q-103 -64 -105 -224zM1165 0 l553 1597h592l-880 -1597h-265zM2023 561q0 243 154 411q171 187 462 187t463 -187q154 -167 154 -411t-154 -411q-172 -187 -463 -187t-453.5 177.5t-162.5 420.5zM2454 563q0 -100 49 -175t136.5 -74.5t136 73t48.5 172.5q0 162 -104 228q-34 22 -80 22q-88 0 -137 -73 t-49 -173z" />
<glyph unicode="&#x26;" horiz-adv-x="2241" d="M66 502q0 193 111 327.5t315 206.5q42 15 59 23q-64 122 -64 200.5t23 129.5q64 146 268 212q120 39 287 39t317 -76q112 -57 160 -155q24 -51 24.5 -110.5t-22.5 -107t-58.5 -87.5t-77.5 -72.5t-80.5 -57t-67.5 -41t-37 -24.5l147 -170q255 191 348 398l471 -127 q1 -134 -159 -339t-301 -282q117 -110 213.5 -166t244.5 -84v-139h-837l-93 102q-111 -77 -202 -101q-233 -62 -433.5 -28.5t-333.5 120.5q-222 146 -222 409zM659 569q-1 -89 79 -125q26 -12 48 -12q44 0 102 14t89 35l-205 252q-113 -54 -113 -164zM952 1265q0 -36 33 -75 l55 -64q10 6 36 18q126 57 126 122q0 90 -127 90q-45 0 -84 -27.5t-39 -63.5z" />
<glyph unicode="'" horiz-adv-x="672" d="M74 1597h516l-82 -753h-332z" />
<glyph unicode="(" horiz-adv-x="1022" d="M41.5 799q-0.5 169 62 335t175.5 285q237 250 618 254v-340q-223 -171 -280 -441q-17 -80 -17 -160t21 -158t61 -138q87 -132 219 -133v-369q-356 0 -598 212q-165 146 -229 370q-32 114 -32.5 283z" />
<glyph unicode=")" horiz-adv-x="1024" d="M123 -66v369q131 1 216 129t85 305q0 255 -162 463q-56 72 -135 133v340q381 -4 618.5 -254.5t237.5 -647t-262 -625.5q-242 -212 -598 -212z" />
<glyph unicode="*" horiz-adv-x="1522" d="M74 692.5q0 65.5 29 103t76 64.5t106.5 46.5t119.5 34t115.5 27t95.5 25.5q-40 13 -95.5 25.5t-115.5 27.5q-152 38 -226 82q-105 61 -105 146.5t55.5 138.5t114 53t111 -32t102.5 -78.5t98 -99t94 -93.5l29 -26q-3 9 -4 19q-7 38 -25.5 102t-41.5 152t-23 146 q0 99 46 149t130 50q178 0 178 -207q0 -67 -39 -197q-55 -184 -63 -223l36 35q43 42 92 94q198 207 312 207q60 0 116 -54.5t56 -119.5t-28 -101.5t-73.5 -62.5t-103 -44t-117 -32.5t-115.5 -27.5t-98 -29q39 -10 94 -21t114 -26q327 -83 327 -233q0 -79 -56 -135 t-112.5 -56t-109 32.5t-104 79.5t-100.5 99t-94 92l-32 29l10 -41q9 -48 24 -98t39.5 -139.5t24.5 -143.5q0 -96 -47 -147t-131 -52q-126 1 -164 111q-12 34 -12 79t12 105t28 119.5t33 114.5t27 96l-35 -33q-47 -40 -95 -92t-98 -99q-118 -112 -210 -112q-60 0 -116 52.5 t-56 118z" />
<glyph unicode="+" horiz-adv-x="1087" d="M33 594v369h327v327h369v-327h326v-369h-326v-326h-369v326h-327z" />
<glyph unicode="," horiz-adv-x="809" d="M123 0v422h608v-404q0 -354 -334 -450q-115 -33 -274 -33v258q111 0 157 103q19 46 23 104h-180z" />
<glyph unicode="-" horiz-adv-x="1008" d="M123 479v432h764v-432h-764z" />
<glyph unicode="." horiz-adv-x="760" d="M76 236.5q0 117.5 93 215.5t232.5 98.5t211 -79t71.5 -198.5t-88 -214.5t-234 -95t-216 78t-70 195z" />
<glyph unicode="/" horiz-adv-x="1042" d="M53 0l287 1597h674l-430 -1597h-531z" />
<glyph unicode="0" horiz-adv-x="1792" d="M78 812.5q0 370.5 223.5 600t595.5 229.5t595.5 -229.5t223.5 -605.5q0 -182 -60 -336.5t-168 -267.5t-258.5 -176.5t-332.5 -63.5t-332.5 63.5t-258.5 176.5q-228 239 -228 609.5zM719 776q0 -321 178 -321t178 321q0 156 -17.5 219t-37.5 94q-43 68 -123 68 q-170 -1 -177 -305q-1 -42 -1 -76z" />
<glyph unicode="1" horiz-adv-x="1155" d="M20 731v486l830 380h184v-1597h-659v860z" />
<glyph unicode="2" horiz-adv-x="1726" d="M68 1214q122 202 364 314t516.5 112t461.5 -129q206 -142 206 -393q0 -200 -171 -372q-89 -90 -182 -158.5t-145 -108.5h508v-479h-1436v289l609 510q123 103 123 215q0 59 -38.5 97t-96.5 38t-115 -19q-190 -62 -369 -253z" />
<glyph unicode="3" horiz-adv-x="1853" d="M80 213l237 387q254 -170 573 -170q88 0 137.5 39t49.5 89t-17 79.5t-46 50.5q-92 68 -280 68q-73 0 -97 -4l-121 211q0 17 272 198h-604v436h1542v-180l-514 -391q549 -67 549 -502q-1 -212 -131 -346q-208 -215 -694 -215q-356 -1 -644 123q-113 48 -212 127z" />
<glyph unicode="4" horiz-adv-x="1872" d="M47 215v471l629 913h960v-897h142v-487h-142v-215h-675v215h-914zM670 686h291v453z" />
<glyph unicode="5" horiz-adv-x="1800" d="M68 172l237 387q235 -129 533 -129q86 0 136 39t50 86.5t-13 72.5t-34 41q-38 29 -91 36.5t-137.5 7.5t-269.5 -37l-291 121l168 802h1325l-84 -403h-786l-29 -162q95 13 182.5 13t176 -11t170.5 -36q181 -55 289 -169t108 -312.5t-130 -334.5q-210 -220 -695 -221 q-342 0 -613 103q-108 41 -202 106z" />
<glyph unicode="6" horiz-adv-x="1786" d="M74 739q0 417 255 666q240 237 636 237q226 0 435.5 -112.5t246.5 -306.5l-502 -138q-31 60 -84 91.5t-103 31.5q-98 0 -161 -55t-64 -162v-19q0 -10 2 -24q125 33 231 33q744 0 744 -475q0 -204 -121 -334q-194 -210 -631 -209q-358 0 -612 199q-272 212 -272 577z M766 651q0 -146 80 -243q37 -45 85 -70t84 -25q123 0 123 85q1 43 -22 111t-80 142h-270z" />
<glyph unicode="7" horiz-adv-x="1759" d="M98 1169v430h1628v-122l-722 -1477h-836l790 1108v43l-653 -14q-64 0 -135.5 14t-71.5 18z" />
<glyph unicode="8" horiz-adv-x="1769" d="M86 426q0 173 72 268.5t231 167.5q-141 74 -192 145t-51.5 187t36.5 183q99 179 396 237q143 28 257 28t194 -6q174 -13 287.5 -55.5t173.5 -89.5q134 -104 134 -259.5t-51.5 -226t-192.5 -143.5q160 -72 232 -168.5t71 -273t-137 -290.5q-198 -166 -661 -167 q-618 1 -762 295q-37 76 -37 168zM727 573.5q0 -57.5 13.5 -82.5t42.5 -43t102 -18t101 18q56 34 56 108.5t-47 119.5t-110.5 45t-110.5 -45t-47 -102.5zM750 1122q0 -62 47 -103q88 -76 155.5 -16.5t67.5 106.5q0 78 -38.5 101t-96.5 23q-135 -1 -135 -111z" />
<glyph unicode="9" horiz-adv-x="1784" d="M74 1100q0 202 128 334q203 208 664 208q342 0 584 -198q260 -211 260 -578q0 -275 -118 -486q-112 -201 -314 -309t-443 -108.5t-441 107.5q-136 74 -208 186q-36 58 -49 127q8 2 502 137q31 -60 84 -91.5t102 -31.5q98 0 161.5 55.5t64.5 161.5v16q0 6 -2 19 q-91 -24 -215 -24t-212 8.5t-168 29.5q-380 99 -380 437zM670 1208q0 -124 102 -254h270q0 148 -79 243.5t-187 94.5q-68 0 -96 -46q-10 -16 -10 -38z" />
<glyph unicode=":" horiz-adv-x="717" d="M82 250q0 106 84 196t209 89.5t193 -74t68 -180.5t-79.5 -194t-214.5 -87t-197.5 72t-62.5 178zM82 1003.5q0 106.5 84 196.5t210 90t193 -74t67 -181t-80 -193.5t-215 -86t-197 71t-62 177z" />
<glyph unicode=";" horiz-adv-x="778" d="M94 -78q111 0 157 103q19 46 23 104h-180v422h608v-404q0 -354 -334 -450q-115 -33 -274 -33v258zM129 1003.5q0 106.5 84 196.5t209.5 90t192.5 -74t67 -181t-80 -193t-214.5 -86t-196.5 70.5t-62 177z" />
<glyph unicode="&#x3c;" horiz-adv-x="1010" d="M0 789.5q0 57.5 39 80.5l852 596v-565l-223 -135l223 -129v-498l-852 572q-39 21 -39 78.5z" />
<glyph unicode="=" horiz-adv-x="1157" d="M123 55v297h913v-297h-913zM123 614v297h913v-297h-913z" />
<glyph unicode="&#x3e;" horiz-adv-x="1014" d="M123 139v566l223 135l-223 129v497l852 -571q39 -21 39 -76.5t-39 -83.5z" />
<glyph unicode="?" horiz-adv-x="1155" d="M82 1155v430q187 53 391 53q507 0 621 -280q26 -64 26 -144q0 -207 -114 -312q-43 -40 -113.5 -88t-104.5 -80q-80 -75 -112 -181h-365q-30 90 -30 164.5t20.5 121.5t52 80.5t67.5 57t67.5 44t52 41t20.5 48.5q0 117 -160 117q-113 0 -268 -53q-35 -12 -51 -19z M211.5 203q-0.5 103 88.5 189.5t222 86.5q70 0 119 -19.5t81 -53.5q64 -66 64 -171t-83 -188t-222 -83.5t-204 68t-65.5 171.5z" />
<glyph unicode="@" horiz-adv-x="2370" d="M76 734.5q0 168.5 44 313.5t122 261q151 227 405.5 346t544 119t537.5 -116q408 -191 535 -610q44 -145 44 -290.5t-40 -238.5t-106 -159q-137 -134 -339 -135q-245 0 -432 199q-97 -152 -277 -200q-56 -15 -128 -15t-151 33.5t-139 101.5q-130 147 -129 393t122 389.5 t292 143.5t299 -112q41 -36 70 -81l114 156h262v-639q0 -54 53 -89.5t96 -35.5t65 13q74 44 74 215q2 352 -197 583q-67 77 -159 133q-194 119 -460 119t-460 -118q-267 -163 -342 -482q-23 -98 -23 -218t51 -252t153 -235q225 -227 615 -227q272 0 475 117l88 -207 q-257 -156 -563 -156q-452 0 -768 243q-219 168 -304 433q-44 136 -44 304.5zM972.5 639q0.5 -107 92 -107t186.5 90q27 26 45 52v246q-100 0 -212 -87t-111.5 -194z" />
<glyph unicode="A" horiz-adv-x="2128" d="M33 0l794 1516q41 81 151 108q32 8 79 8t102.5 -26.5t87.5 -83.5l852 -1522h-811l-63 158h-432l-54 -158h-706zM842 475h323l-153 432z" />
<glyph unicode="B" horiz-adv-x="1892" d="M123 4v1593q543 25 780 25q441 0 633 -100q172 -90 172 -273q0 -110 -57.5 -184.5t-175.5 -128.5q148 -50 228 -142q105 -121 105 -332q0 -455 -704 -481q-101 -4 -157 -4t-97 1t-93.5 2.5t-114 3t-124.5 4t-124 4.5t-114 4.5t-94 4t-63 3.5zM748 332q14 5 26.5 10 t57.5 22q160 60 218 99q93 62 93 156q0 86 -99 86h-2q-75 0 -231 -87q-37 -20 -63 -34v-252zM748 866q170 66 226 105q116 78 116 168q0 63 -66 81q-18 5 -38 5t-46.5 -7t-52.5 -18q-40 -15 -88.5 -43.5t-50.5 -30.5v-260z" />
<glyph unicode="C" horiz-adv-x="1526" d="M61 753q0 127 32 243q32 118 93 218q122 201 342 315q219 113 501 113h5q217 0 348 -49v-516q-65 25 -139 25q-152 0 -264.5 -110.5t-112.5 -264.5q0 -103 40 -161t109 -58t152.5 35.5t245.5 154.5v-651q-213 -86 -452.5 -86t-441.5 92q-321 147 -423 460 q-35 109 -35 240z" />
<glyph unicode="D" horiz-adv-x="1810" d="M123 0v1597q607 45 792.5 45t293 -34.5t192.5 -95.5q165 -117 249.5 -311t84.5 -393t-64.5 -347.5t-178.5 -250.5q-232 -210 -600 -210h-3h-766zM745 481q53 45 115 89q238 171 238 358q0 91 -54 168.5t-140.5 77.5t-158.5 -84v-609z" />
<glyph unicode="E" horiz-adv-x="1423" d="M123 0v1597h1151v-460h-529v-131h527v-392h-527v-151h564v-463h-1186z" />
<glyph unicode="F" horiz-adv-x="1323" d="M123 0v1597h1149v-452h-527v-148h527v-436h-527v-561h-622z" />
<glyph unicode="G" horiz-adv-x="1724" d="M63 807q0 381 303.5 608t778.5 227q233 0 369 -50q24 -9 26 -9v-483q-147 45 -270 45q-224 0 -351 -119q-126 -118 -126 -272q0 -110 59.5 -179t163.5 -69q56 0 86 14q2 37 2 95v145h296l153 1q56 0 65 1v-742q-351 -59 -560 -59t-392 59.5t-317 169.5t-210 266.5 t-76 350.5z" />
<glyph unicode="H" horiz-adv-x="1823" d="M123 0v1597h622v-577l332 27v550h623v-1597h-623v590l-332 -29v-561h-622z" />
<glyph unicode="I" horiz-adv-x="866" d="M123 0v1597h622v-1597h-622z" />
<glyph unicode="J" horiz-adv-x="1579" d="M14 567v152l555 76v-154q0 -139 83 -179q24 -12 49 -12q26 0 53 14q26 14 46 40q44 56 44 143v950h637v-772q0 -603 -370 -785q-158 -78 -409 -79q-132 0 -263 35t-225 109q-200 156 -200 462z" />
<glyph unicode="K" horiz-adv-x="1956" d="M123 0v1597h633v-491l385 491h649l-516 -673l596 -924h-729l-334 565l-37 -65v-500h-647z" />
<glyph unicode="L" horiz-adv-x="1313" d="M123 0v1597h622v-1116h537v-481h-1159z" />
<glyph unicode="M" horiz-adv-x="2261" d="M123 0v1597h229l772 -725l793 725h221v-1597h-657v518l-408 -448l-397 436v-506h-553z" />
<glyph unicode="N" horiz-adv-x="1843" d="M123 0v1597h162l872 -622v622h563v-1597h-215l-821 549v-549h-561z" />
<glyph unicode="O" horiz-adv-x="1942" d="M74 803.5q0 246.5 120 436.5t322 296t418.5 106t381.5 -58t287.5 -166.5t192.5 -265.5t70 -355q0 -246 -125 -437.5t-333 -295t-444 -103.5q-355 0 -616 230q-83 73 -144 167q-130 199 -130 445.5zM723 647q0 -166 168 -166h1q66 0 152 89q125 132 177 320q16 58 16 100 q0 169 -162 169q-70 0 -156 -88q-129 -133 -180 -317q-16 -58 -16 -107z" />
<glyph unicode="P" horiz-adv-x="1751" d="M123 0v1593q496 49 750 49t402.5 -37t244.5 -115q186 -152 186 -499q0 -156 -59 -286t-161 -223t-239 -145t-293 -52l-178 4v-289h-653zM772 731l117 57q116 57 162 109q86 97 86 193t-65 127q-21 10 -48 10q-86 0 -252 -119v-377z" />
<glyph unicode="Q" horiz-adv-x="2015" d="M72 803.5q0 246.5 120 436.5t322 296t444 106q388 0 644 -224q262 -230 262 -648q0 -160 -75 -322q120 -40 200 -40q4 -152 4 -441q-46 -6 -92 -6q-212 0 -427 140q-227 -140 -516 -140q-228 0 -431.5 105.5t-329 298t-125.5 439zM721 647q0 -166 168 -166q53 0 116 55 q-37 42 -73 85l-72 86l109 163q82 -56 194 -123q73 145 73 256q0 110 -88 144q-30 12 -70.5 12t-81 -24t-79.5 -64q-80 -82 -138 -204.5t-58 -219.5z" />
<glyph unicode="R" horiz-adv-x="1917" d="M123 0v1597q634 45 831 45t300 -24q284 -65 406 -278q68 -122 69 -265q0 -320 -316 -508l434 -567h-790l-281 463v-463h-653zM772 754q363 135 363 338q0 141 -105 141q-45 0 -125 -33l-133 -55v-391z" />
<glyph unicode="S" horiz-adv-x="1446" d="M96 1133q0 343 362 461q147 48 339.5 48t402.5 -44q43 -9 57 -13v-459q-272 58 -391 58q-46 0 -69 -16t-23 -36t20 -41.5t69 -43t114.5 -52t122.5 -65.5q256 -157 256 -429q0 -258 -174 -399q-176 -140 -486 -141q-449 0 -596 111v458q4 -1 29.5 -9t64.5 -20 q91 -28 191.5 -52.5t161.5 -24.5q100 0 100 61q0 47 -86 100q-39 24 -88.5 50t-100.5 58q-125 77 -200.5 180t-75.5 260z" />
<glyph unicode="T" horiz-adv-x="1624" d="M57 1079v518h1512v-518h-445v-1079h-622v1079h-445z" />
<glyph unicode="U" horiz-adv-x="1745" d="M106 637v960h631v-942q0 -142 95 -185q33 -15 79 -15q130 0 164 124q10 37 10 80v938h553v-960q0 -676 -737 -676q-795 0 -795 676z" />
<glyph unicode="V" horiz-adv-x="1843" d="M25 1597h725l249 -501l232 501h586l-785 -1595q-26 -49 -90.5 -49t-89.5 49z" />
<glyph unicode="W" horiz-adv-x="2664" d="M63 1597h717l183 -569l399 535q20 27 30 35t30 8t51 -43l372 -529l180 563h572l-522 -1556q-34 -100 -115 -100t-145 92l-447 645l-481 -647q-65 -86 -145 -86t-117 100z" />
<glyph unicode="X" horiz-adv-x="1923" d="M96 1597h717l178 -319l187 319h559l-418 -751l518 -846h-737l-191 365l-182 -365h-596l436 831z" />
<glyph unicode="Y" horiz-adv-x="1718" d="M43 1597h713l159 -327l164 327h596l-497 -974v-623h-648v623z" />
<glyph unicode="Z" horiz-adv-x="1845" d="M109 0v92l612 1022h-551v483h1556v-122l-616 -1018h616v-457h-1617z" />
<glyph unicode="[" horiz-adv-x="1188" d="M123 -37v1677h944v-286h-322v-1118h322v-273h-944z" />
<glyph unicode="\" horiz-adv-x="1057" d="M49 1597h531l450 -1597h-674z" />
<glyph unicode="]" horiz-adv-x="1188" d="M123 -37v273h321v1118h-321v286h944v-1677h-944z" />
<glyph unicode="^" horiz-adv-x="819" d="M47 1401q0 29 16 63l205 418q21 43 61.5 66.5t80.5 23.5t80 -21.5t63 -68.5l205 -418q14 -35 14 -66.5t-36 -31.5t-99 59l-227 207l-226 -207q-63 -59 -100 -59t-37 35z" />
<glyph unicode="_" horiz-adv-x="1157" d="M123 0h913v-297h-913v297z" />
<glyph unicode="`" horiz-adv-x="625" d="M33 1476h407l144 -499q8 -26 8 -54q0 -55 -36.5 -55t-92.5 70z" />
<glyph unicode="a" horiz-adv-x="1726" d="M84 543q0 131 26 227q52 191 182 321q62 64 138 108q156 91 329.5 91t304.5 -115q42 -37 73 -85l143 153h328v-1243h-328l-143 207q-164 -242 -497 -243h-5q-89 0 -191 36q-104 36 -184.5 110.5t-128 188t-47.5 244.5zM680 516q0 -88 54 -124q22 -14 54 -14q40 0 98 24 q102 42 183 110v354q-36 21 -86 21t-105.5 -35.5t-99.5 -89.5q-98 -121 -98 -246z" />
<glyph unicode="b" horiz-adv-x="1733" d="M123 16v1667h582v-587q129 122 313 155q50 9 88 9q261 0 406 -175t145 -428q0 -135 -77 -281q-150 -284 -508 -379q-134 -36 -367 -36t-582 55zM702 336h99q100 0 195.5 121.5t95.5 249.5q0 91 -53 125q-19 12 -46 12q-131 0 -291 -131v-377z" />
<glyph unicode="c" horiz-adv-x="1243" d="M74 588q0 314 216 509t562 195q143 0 258 -43v-385q-27 23 -76 23t-105 -31t-102 -83q-106 -119 -106 -245q0 -128 77 -144q20 -4 40 -5q101 0 292 143v-489q-191 -72 -365 -72q-125 0 -240 37q-277 89 -393 318q-58 116 -58 272z" />
<glyph unicode="d" horiz-adv-x="1786" d="M74 544q0 254 104 418q206 326 660 326q119 0 245 -39v434h582v-1683h-371l-143 207q-183 -242 -481 -242q-239 0 -417.5 162.5t-178.5 416.5zM694 512.5q0 -86.5 53 -120.5q19 -12 46 -13q130 0 290 131v356q-34 21 -74 21t-77 -16q-76 -33 -136 -107q-32 -36 -54 -77 q-48 -88 -48 -174.5z" />
<glyph unicode="e" horiz-adv-x="1505" d="M74 571q0 220 114 395q106 160 287 243t391 83q272 0 412 -119q139 -119 139 -293q0 -176 -168 -312q-167 -136 -450 -136h-55q-26 0 -50 2q0 -119 127 -130q35 -3 68 -3q85 0 213.5 39t230.5 127l62 -311q-223 -193 -674 -193q-259 0 -445 151q-202 165 -202 457z M694 662l219 49l19 153l2 23q0 88 -82 88q-94 -9 -122 -97q-14 -42 -19.5 -97.5t-16.5 -118.5z" />
<glyph unicode="f" horiz-adv-x="1122" d="M68 926v317h114v211q0 166 132 263t352 97q1 1 2 1q219 0 393 -103v-299q-49 14 -97 14q-87 0 -132.5 -49.5t-51.5 -134.5h283v-317h-283v-926h-598v926h-114z" />
<glyph unicode="g" horiz-adv-x="1702" d="M74 571q0 210 92 373.5t247.5 254.5t331 91t303.5 -115q42 -37 72 -85l144 153h327v-1243q1 -385 -347 -506q-140 -49 -320.5 -49t-350.5 43v354q51 -6 111.5 -17t117.5 -11t105.5 13t86.5 51q82 82 83 276q-175 -191 -423 -192h-2q-248 0 -412 158q-166 158 -166 451z M664 516q0 -88 52 -124q22 -14 55 -14q34 0 81 15q88 29 201 117v356q-36 21 -75.5 21t-76.5 -16q-76 -33 -136 -107q-101 -117 -101 -248z" />
<glyph unicode="h" horiz-adv-x="1695" d="M121 0v1683h594v-573q135 180 409 180q78 0 166 -36t153 -104q140 -145 140 -384v-766h-598v539q0 161 -52 264.5t-122 103.5q-96 0 -96 -131v-776h-594z" />
<glyph unicode="i" horiz-adv-x="821" d="M106 1554q0 44 21 92t63 86q93 87 240 87q146 1 217 -61q71 -61 71 -156q0 -96 -92 -176q-90 -80 -241 -80q-212 0 -264 128q-15 36 -15 80zM121 0v1243h579v-1243h-579z" />
<glyph unicode="j" horiz-adv-x="1016" d="M31 -188l2 258q40 -17 86 -17t77 25.5t57 63.5q60 89 60 175v926h598v-1132q0 -203 -132.5 -323t-327.5 -120q-241 0 -420 144zM305 1554q0 44 21 92t62 86q94 87 240 87t217 -61q71 -62 71 -156q0 -96 -92 -176q-90 -80 -240 -80q-212 0 -264 128q-15 36 -15 80z" />
<glyph unicode="k" horiz-adv-x="1544" d="M123 0v1683h518v-811l236 371h589l-383 -543l445 -700h-610l-250 403q-14 -23 -17 -34v-369h-528z" />
<glyph unicode="l" horiz-adv-x="811" d="M123 0v1683h567v-1683h-567z" />
<glyph unicode="m" horiz-adv-x="2396" d="M121 0v1243h328l143 -194q73 110 208.5 175.5t276.5 65.5q183 0 303 -124q39 -40 66 -93q170 217 432 217q72 0 148.5 -30t133.5 -87q124 -124 124 -325v-848h-580v641q0 123 -39 193q-39 72 -93 72q-53 0 -70 -70q-5 -20 -5 -45v-791h-567v641q0 123 -42.5 193.5 t-92.5 70.5q-80 0 -80 -129v-776h-594z" />
<glyph unicode="n" horiz-adv-x="1681" d="M121 0v1243h328l143 -194q80 111 221.5 176t264.5 65q226 0 358.5 -120t132.5 -322v-848h-598v600q0 305 -176 305q-80 0 -80 -129v-776h-594z" />
<glyph unicode="o" horiz-adv-x="1587" d="M74 627.5q0 291.5 207 477t511 185.5t511 -182q208 -182 208 -489q0 -193 -99 -341q-100 -150 -267 -232t-357 -83q-286 0 -493 181q-221 192 -221 483.5zM602 486.5q0 -81.5 62 -109.5q22 -10 54 -10t67 19.5t70 52.5q73 69 128 167.5t55 176.5t-56 106q-20 10 -51.5 10 t-69.5 -18.5t-75 -50.5q-78 -68 -131 -165t-53 -178.5z" />
<glyph unicode="p" horiz-adv-x="1645" d="M121 -324v1567h328l139 -192q224 239 471 239t378.5 -142t131.5 -360q-1 -286 -189 -510q-140 -167 -381 -238q-125 -37 -284 -40v-324h-594zM715 352q17 12 50.5 32.5t73.5 49.5q236 168 236 342q0 70 -61 93q-21 8 -52 8q-63 0 -135.5 -72.5t-111.5 -165.5v-287z" />
<glyph unicode="q" horiz-adv-x="1704" d="M74 563q0 251 161 449q134 164 408 235q143 37 373.5 37t566.5 -55v-1555h-541v453q-124 -121 -312 -155q-50 -9 -89 -9q-271 0 -419 174.5t-148 425.5zM655 511q0 -85 53 -119q19 -12 46 -13q130 0 290 131v356q-34 21 -73.5 21t-77 -16t-71.5 -43q-73 -56 -120 -142 q-47 -88 -47 -175z" />
<glyph unicode="r" horiz-adv-x="1065" d="M121 0v1243h602v-133q51 77 126.5 123t160.5 55v-514q-92 0 -189 -67t-98 -127v-580h-602z" />
<glyph unicode="s" horiz-adv-x="1202" d="M96 876q0 217 176 324q148 90 387 90q167 0 335 -33q36 -7 46 -10v-377q-222 52 -323 52q-29 0 -44.5 -13t-15.5 -29q0 -33 82.5 -66.5t151.5 -65.5t119 -78q108 -100 108 -297.5t-143 -303.5t-387 -106t-390 45q-64 19 -98 45v371q14 -1 49 -13t116 -37.5t147.5 -25.5 t66.5 49q0 38 -60 74q-27 16 -61 33q-141 69 -201.5 159.5t-60.5 212.5z" />
<glyph unicode="t" horiz-adv-x="1124" d="M66 926v317h114v336l598 61v-397h283v-317h-283v-314q0 -141 63.5 -204.5t219.5 -63.5v-254q-190 -129 -402.5 -129t-345.5 120.5t-133 324.5v520h-114z" />
<glyph unicode="u" horiz-adv-x="1679" d="M113 395v848h598v-579q0 -328 159 -328q80 0 93 78q4 24 4 53v776h594v-1243h-328l-143 195q-127 -173 -367 -225q-82 -18 -155 -18q-189 0 -319 118q-136 123 -136 325z" />
<glyph unicode="v" horiz-adv-x="1470" d="M25 1243h585l185 -366l170 366h477l-613 -1241q-18 -39 -78 -39t-81 39z" />
<glyph unicode="w" horiz-adv-x="2079" d="M69 1243h560l135 -414l307 414h64l286 -405l133 405h455l-422 -1251h-166l-358 518l-383 -518h-166z" />
<glyph unicode="x" horiz-adv-x="1530" d="M90 1243h567l123 -233l123 233h461l-311 -588l401 -655h-598l-141 283l-115 -283h-500l336 645z" />
<glyph unicode="y" horiz-adv-x="1651" d="M88 1243h596l215 -481l201 481h524l-467 -1161q-93 -227 -205 -335q-137 -132 -338 -132q-275 0 -413 57v355q106 -29 266 -29q101 0 135 86q10 26 10 54t-10 59z" />
<glyph unicode="z" horiz-adv-x="1483" d="M109 0v68l479 798h-432v377h1239v-92l-484 -795h484v-356h-1286z" />
<glyph unicode="{" horiz-adv-x="1044" d="M33 621v329q71 2 114 55.5t43 157.5t42 209.5t130 181.5q187 160 562 160v-381q-114 -1 -152 -79q-22 -46 -22 -119q0 -130 -66 -226t-174 -125q106 -29 173 -122.5t67 -195t20 -141.5q42 -87 154 -87v-381q-376 0 -555 153t-179 422q0 124 -92 172q-29 15 -65 17z" />
<glyph unicode="|" horiz-adv-x="815" d="M96 1802h629l-78 -2007h-485z" />
<glyph unicode="}" horiz-adv-x="1044" d="M123 -143v381q113 0 151 80q22 46 22 119q1 131 67 225t174 122q-108 29 -174 125t-65.5 198t-19.5 141q-42 85 -155 85v381q375 0 554 -153t179 -422q0 -125 93 -173q29 -15 65 -16v-329q-70 -4 -114 -56t-44 -133q0 -414 -399 -534q-139 -42 -334 -41z" />
<glyph unicode="~" horiz-adv-x="1098" d="M78 1384q0 276 150 329q46 16 104 16q81 0 268 -52.5t233.5 -52.5t69.5 9.5t40.5 21.5t30.5 21.5t21 9.5q17 0 17 -17q0 -279 -142 -332q-43 -16 -99 -16t-125.5 16.5t-198 53t-191.5 36.5t-95 -20.5t-44.5 -29.5t-20.5 -9q-18 0 -18 16z" />
<glyph unicode="&#xa1;" horiz-adv-x="774" d="M102 -37l103 961h373l102 -961h-578zM104 1364q0 158 144 216q49 20 122 20q143 -1 226.5 -84.5t83.5 -188.5t-67 -175t-199.5 -69.5t-221 87.5t-88.5 194z" />
<glyph unicode="&#xa2;" horiz-adv-x="1167" d="M29 598.5q0 279.5 183 470t484 219.5l9 164h153l-10 -162q138 -14 217 -41v-420q-43 13 -98 13q-120 0 -209.5 -73t-89.5 -200q0 -168 110 -168q91 0 307 160v-528q-156 -57 -301 -68l-10 -170h-151l8 174q-255 25 -428.5 187.5t-173.5 442z" />
<glyph unicode="&#xa3;" horiz-adv-x="1954" d="M59 131q166 108 232 287q24 65 24 139v92h-245v318h262l4 30q76 643 844 643q228 0 391 -67q258 -106 258 -324l-467 -162q-41 119 -198 119q-92 0 -155 -62t-63 -177h492v-318h-518q-10 -106 -48 -205q152 33 224 33q100 0 208.5 -19.5t208 -19.5t246.5 44q40 12 64 24 l37 -436q-214 -107 -455 -107q-122 0 -308 31.5t-293.5 46t-228.5 14.5q-218 0 -397 -92z" />
<glyph unicode="&#xa4;" horiz-adv-x="1620" d="M90 907q0 199 118 362q39 54 91 99l-115 133l129 98l123 -141q169 80 378.5 80t373.5 -84l129 145l129 -98l-123 -137q151 -134 192 -332q13 -62 13 -125q0 -127 -50.5 -246t-152.5 -210l121 -136l-129 -98l-127 143q-166 -84 -380 -84t-374 80l-123 -139l-129 98 l115 131q-209 181 -209 461zM532 913.5q0 -130.5 82 -204.5t195 -74t195 74t81.5 204.5t-83 201.5t-194 71t-194 -71t-82.5 -201.5z" />
<glyph unicode="&#xa5;" horiz-adv-x="1739" d="M53 1597h713l160 -327l164 327h596l-330 -665h209v-184h-301l-56 -113h357v-184h-377v-451h-647v451h-363v184h342l-55 113h-287v184h199z" />
<glyph unicode="&#xa6;" horiz-adv-x="801" d="M98 -205l29 885h545l35 -885h-609zM127 918l29 884h485l35 -884h-549z" />
<glyph unicode="&#xa7;" horiz-adv-x="1434" d="M57 854q1 150 98 258t209 121q-2 11 -2 23v24q0 210 166 308q138 82 371 81q160 0 320 -35v-356q-147 20 -255 20t-108 -51q0 -18 22 -28t58.5 -18.5t83.5 -18.5q107 -23 171.5 -62.5t100.5 -85.5q80 -101 80 -260.5t-89 -283t-204 -136.5q13 -61 13 -111.5t-21.5 -100 t-58.5 -86.5q-71 -71 -191.5 -104.5t-257.5 -33.5q-226 0 -362 68v348q165 -43 259.5 -42.5t113.5 24.5q8 10 8 30.5t-22.5 35.5t-59.5 27.5t-84 26.5q-116 33 -178 71q-181 113 -181 347zM469 854q0 -31 22.5 -45t39.5 -21t55 -23t136.5 -47.5t154 -31.5t76 10t20.5 40 q0 70 -94 100q-18 18 -143 51t-173 33q-94 0 -94 -66z" />
<glyph unicode="&#xa8;" horiz-adv-x="1290" d="M102 1051q0 92 70.5 162.5t181 70.5t169.5 -57t59 -144q0 -159 -138 -220q-48 -21 -110 -21q-115 0 -173.5 58.5t-58.5 150.5zM709.5 1050.5q0.5 91.5 69.5 162.5t180 71t170 -57t59 -144q0 -160 -136 -220q-48 -21 -109 -21q-113 0 -173.5 58.5t-60 150z" />
<glyph unicode="&#xa9;" horiz-adv-x="2384" d="M76 805q0 346 158 592.5t412.5 371t545.5 123.5q449 0 767 -272q218 -187 305 -483q44 -151 44 -332q0 -346 -158.5 -592.5t-413 -370.5t-544.5 -125q-452 0 -768 272q-218 188 -304 484q-44 151 -44 332zM311 805q1 -388 221 -637q150 -170 391 -234q122 -32 305.5 -32 t349 71.5t275.5 194.5q220 246 220 636t-220 638q-110 124 -275.5 196t-349 72t-305.5 -33q-356 -96 -514 -419q-98 -201 -98 -453zM590 810q0 274 187.5 452t486.5 178q151 0 243 -35v-379q-43 16 -97 16q-106 0 -184 -74q-78 -76 -77 -182q0 -153 108 -153q64 0 135.5 43 t135.5 90v-473q-153 -60 -296 -60q-277 0 -450 145q-192 158 -192 432z" />
<glyph unicode="&#xaa;" horiz-adv-x="1362" d="M88 1107.5q0 244.5 121 388.5t293 144t296 -111q40 -36 70 -81l115 156h262v-996h-262l-115 166q-84 -136 -246 -180q-50 -14 -119 -14t-148 34t-138 102q-129 147 -129 391.5zM492 1010q0 -107 92 -107t186 89q26 25 45 52v246q-101 0 -212 -86.5t-111 -193.5z" />
<glyph unicode="&#xab;" horiz-adv-x="1606" d="M27 790.5q0 47.5 39 79.5l688 576v-483l-236 -166l236 -181v-456l-688 551q-39 32 -39 79.5zM758 790.5q0 47.5 39 79.5l688 576v-483l-236 -166l236 -181v-456l-688 551q-39 32 -39 79.5z" />
<glyph unicode="&#xac;" horiz-adv-x="1219" d="M39 479v432h1059v-606h-297v174h-762z" />
<glyph unicode="&#xad;" horiz-adv-x="1036" d="M61 614v297h914v-297h-914z" />
<glyph unicode="&#xae;" horiz-adv-x="2384" d="M76 805q0 346 158 592.5t412.5 371t545.5 123.5q449 0 767 -272q218 -187 305 -483q44 -151 44 -332q0 -346 -158.5 -592.5t-413 -370.5t-544.5 -125q-452 0 -768 272q-218 188 -304 484q-44 151 -44 332zM311 805q1 -388 221 -637q150 -170 391 -234q122 -32 305.5 -32 t349 71.5t275.5 194.5q220 246 220 636t-220 638q-110 124 -275.5 196t-349 72t-305.5 -33q-356 -96 -514 -419q-98 -201 -98 -453zM633 281v1124h614q233 -1 373.5 -119t140.5 -278q0 -208 -221 -328l305 -399h-557l-178 294h-18v-294h-459zM1090 795l88 49q27 18 54 33 q95 54 95 143.5t-81 89.5q-45 0 -156 -63v-252z" />
<glyph unicode="&#xaf;" horiz-adv-x="1157" d="M123 946v297h913v-297h-913z" />
<glyph unicode="&#xb0;" horiz-adv-x="803" d="M78 1323.5q0 149.5 96 233t227 83.5t228.5 -84t98 -233t-96.5 -233t-228 -84t-228 84t-97 233.5zM260 1340q0 -68 38.5 -110t90.5 -42q83 0 121 40.5t37.5 80t-9.5 64.5t-28 44q-41 43 -107.5 43t-104.5 -40.5t-38 -79.5z" />
<glyph unicode="&#xb1;" horiz-adv-x="936" d="M59 684v295h263v262h294v-262h261v-295h-261v-260h-294v260h-263zM102 0v238h729v-238h-729z" />
<glyph unicode="&#xb2;" horiz-adv-x="1413" d="M68 971q94 161 288 251.5t414.5 90.5t377.5 -109t157 -316.5t-265 -404.5q-70 -52 -133 -100h406v-383h-1147v231l485 408q99 82 99 172q0 46 -30.5 77.5t-77 31.5t-91.5 -15q-147 -49 -295 -205z" />
<glyph unicode="&#xb3;" horiz-adv-x="1518" d="M80 170l190 309q202 -135 457 -135q71 0 111.5 31.5t40.5 79.5q-1 85 -103 123q-73 27 -141 27t-98 -3h-11l-98 168q0 2 9 12t16 13l194 135h-483v348h1233v-143l-412 -314q440 -53 440 -401q1 -320 -355 -414q-194 -52 -421 -32q-357 31 -569 196z" />
<glyph unicode="&#xb4;" horiz-adv-x="625" d="M33 924q0 28 8 54l143 499h408l-430 -538q-56 -70 -92.5 -70t-36.5 55z" />
<glyph unicode="&#xb5;" horiz-adv-x="1649" d="M123 -233v1476h598v-805q0 -52 32 -84t76 -32t85 34t63 111v776h594v-1243h-328l-143 195q-70 -195 -252 -195q-61 0 -127 27v-260h-598z" />
<glyph unicode="&#xb6;" horiz-adv-x="1751" d="M39 1116q0 197 133.5 339t366.5 142h1089v-1597h-321v1292h-115v-1292h-328v453l-157 -4q-293 0 -480.5 187.5t-187.5 479.5z" />
<glyph unicode="&#xb7;" horiz-adv-x="760" d="M76 926.5q0 117.5 93 215.5t232.5 98.5t211 -79t71.5 -198.5t-88 -214.5t-234 -95t-216 78t-70 195z" />
<glyph unicode="&#xb8;" horiz-adv-x="709" d="M20 -486.5q0 27.5 18.5 46t33.5 18.5t34.5 -10t73.5 -32t92 -22q115 2 114 61q-1 27 -16 44q-47 53 -161 53l94 328h137l-61 -190l22 -2q102 -10 145 -32q112 -57 112 -167q-1 -126 -86.5 -183t-209.5 -57q-176 0 -303 86q-39 31 -39 58.5z" />
<glyph unicode="&#xb9;" horiz-adv-x="952" d="M20 586v387l664 305h147v-1278h-528v688z" />
<glyph unicode="&#xba;" horiz-adv-x="1303" d="M76 1109q0 233 165 382t410 149t410 -145.5t165 -384t-171 -384.5t-403.5 -146t-404 148t-171.5 381zM520 1014q0 -101 92 -101q61 0 131 112t70 206t-90 94q-40 0 -77 -39q-57 -61 -91.5 -135t-34.5 -137z" />
<glyph unicode="&#xbb;" horiz-adv-x="1608" d="M123 160v483l235 166l-235 180v457l688 -551q39 -32 39 -80t-39 -80zM854 160v483l236 166l-236 180v457l688 -551q39 -32 39 -80t-39 -80z" />
<glyph unicode="&#xbc;" horiz-adv-x="3695" d="M20 905v387l664 305h147v-1278h-528v688zM1024 0l553 1597h592l-880 -1597h-265zM1919 172v377l502 731h768v-719h115v-389h-115v-172h-541v172h-729zM2417 549h231v362z" />
<glyph unicode="&#xbd;" horiz-adv-x="3695" d="M20 905v387l664 305h147v-1278h-528v688zM964 0l553 1597h592l-880 -1597h-265zM2081 971q94 161 288 251.5t414.5 90.5t377.5 -109t157 -316.5t-265 -404.5q-70 -52 -133 -100h406v-383h-1147v231l485 408q99 82 99 172q0 46 -30.5 77.5t-77 31.5t-91.5 -15 q-147 -49 -295 -205z" />
<glyph unicode="&#xbe;" horiz-adv-x="3695" d="M-302 489l190 309q202 -135 457 -135q71 0 111.5 31.5t40.5 79.5q-1 85 -103 123q-73 27 -141 27t-98 -3h-11l-98 168q0 2 9 12t16 13l194 135h-483v348h1233v-143l-412 -314q440 -53 440 -401q1 -320 -355 -414q-194 -52 -421 -32q-357 31 -569 196zM1024 0l553 1597 h592l-880 -1597h-265zM1919 172v377l502 731h768v-719h115v-389h-115v-172h-541v172h-729zM2417 549h231v362z" />
<glyph unicode="&#xbf;" horiz-adv-x="1251" d="M180 390q0 207 114 312q43 40 113.5 88t104.5 80q80 75 112 181h365q30 -90 30 -164.5t-20.5 -121.5t-52 -80.5t-67.5 -57t-67.5 -44t-52 -41t-20.5 -48.5q0 -117 160 -117q113 0 268 53q35 12 51 19v-430q-187 -53 -391 -53q-507 0 -621 280q-26 64 -26 144zM514 1369 q0 105 83 188t222 83.5t204 -68t65.5 -171.5t-88.5 -189.5t-222 -86.5q-70 0 -119 19.5t-81 53.5q-64 66 -64 171z" />
<glyph unicode="&#xc0;" horiz-adv-x="2144" d="M33 0l794 1516q41 81 151 108q32 8 79 8t102.5 -26.5t87.5 -83.5l852 -1522h-811l-63 158h-432l-54 -158h-706zM559 2350h407l144 -499q8 -26 8 -54q0 -55 -36.5 -55t-92.5 70zM842 475h323l-153 432z" />
<glyph unicode="&#xc1;" horiz-adv-x="2144" d="M33 0l794 1516q41 81 151 108q32 8 79 8t102.5 -26.5t87.5 -83.5l852 -1522h-811l-63 158h-432l-54 -158h-706zM842 475h323l-153 432zM1045 1798q0 28 8 54l143 499h408l-430 -538q-56 -70 -92.5 -70t-36.5 55z" />
<glyph unicode="&#xc2;" horiz-adv-x="2144" d="M33 0l794 1516q41 81 151 108q32 8 79 8t102.5 -26.5t87.5 -83.5l852 -1522h-811l-63 158h-432l-54 -158h-706zM719 1814q0 28 16 64l205 417q21 44 61.5 67t82.5 23q97 0 141 -90l205 -417q14 -28 14 -63.5t-29 -35.5q-42 0 -106 60l-227 206l-226 -206 q-66 -60 -101.5 -60t-35.5 35zM842 475h323l-153 432z" />
<glyph unicode="&#xc3;" horiz-adv-x="2144" d="M33 0l794 1516q41 81 151 108q32 8 79 8t102.5 -26.5t87.5 -83.5l852 -1522h-811l-63 158h-432l-54 -158h-706zM624 1820q-1 278 149 328q46 16 104 16q86 0 269.5 -52t232 -52t71 9.5t40.5 21t30.5 21t21.5 9.5q16 0 16 -16q0 -280 -141 -332q-43 -16 -99 -16 t-125.5 16.5t-198 53t-192.5 36.5t-95 -20.5t-44 -29.5t-20 -9q-19 0 -19 16zM842 475h323l-153 432z" />
<glyph unicode="&#xc4;" horiz-adv-x="2144" d="M33 0l794 1516q41 81 151 108q32 8 79 8t102.5 -26.5t87.5 -83.5l852 -1522h-811l-63 158h-432l-54 -158h-706zM536 1925q0 92 70.5 162.5t181 70.5t169.5 -57t59 -144q0 -159 -138 -220q-48 -21 -110 -21q-115 0 -173.5 58.5t-58.5 150.5zM842 475h323l-153 432z M1143.5 1924.5q0.5 91.5 69.5 162.5t180 71t170 -57t59 -144q0 -160 -136 -220q-48 -21 -109 -21q-113 0 -173.5 58.5t-60 150z" />
<glyph unicode="&#xc5;" horiz-adv-x="2144" d="M33 0l794 1516q41 81 151 108q32 8 79 8t102.5 -26.5t87.5 -83.5l852 -1522h-811l-63 158h-432l-54 -158h-706zM709.5 2065q0.5 149 96 232t227 84t229 -83t97.5 -233.5t-96.5 -234t-229 -84.5t-228.5 85t-95.5 234zM842 475h323l-153 432zM892 2067q0 -54 39 -96t90 -42 q82 0 120 40.5t38 80.5q0 68 -39 110t-106 41q-101 -1 -133 -85q-9 -24 -9 -49z" />
<glyph unicode="&#xc6;" horiz-adv-x="2439" d="M23 0l1091 1597h1235v-442h-524v-154h524v-383h-524v-174h555v-444h-1227v123h-408l-71 -123h-651zM930 494h223v426z" />
<glyph unicode="&#xc7;" horiz-adv-x="1526" d="M61.5 749q-0.5 129 31.5 247t93 218q122 201 342.5 315t505.5 113q217 0 348 -49v-516q-65 25 -139 25q-152 0 -264.5 -110.5t-112.5 -264.5q0 -103 40 -161t109 -58t152.5 35.5t245.5 154.5v-651q-213 -86 -452.5 -86t-441.5 92q-321 147 -423 460q-34 107 -34.5 236z M583 -486.5q0 27.5 18.5 46t33.5 18.5t34.5 -10t73.5 -32t92 -22q115 2 114 61q-1 27 -16 44q-47 53 -161 53l94 328h137l-61 -190l22 -2q102 -10 145 -32q112 -57 112 -167q-1 -126 -86.5 -183t-209.5 -57q-176 0 -303 86q-39 31 -39 58.5z" />
<glyph unicode="&#xc8;" horiz-adv-x="1423" d="M123 0v1597h1151v-460h-529v-131h527v-392h-527v-151h564v-463h-1186zM183 2350h407l144 -499q8 -26 8 -54q0 -55 -36.5 -55t-92.5 70z" />
<glyph unicode="&#xc9;" horiz-adv-x="1423" d="M123 0v1597h1151v-460h-529v-131h527v-392h-527v-151h564v-463h-1186zM668 1798q0 28 8 54l143 499h408l-430 -538q-56 -70 -92.5 -70t-36.5 55z" />
<glyph unicode="&#xca;" horiz-adv-x="1423" d="M123 0v1597h1151v-460h-529v-131h527v-392h-527v-151h564v-463h-1186zM342 1814q0 28 16 64l205 417q21 44 61.5 67t82.5 23q97 0 141 -90l205 -417q14 -28 14 -63.5t-29 -35.5q-42 0 -106 60l-227 206l-226 -206q-66 -60 -101.5 -60t-35.5 35z" />
<glyph unicode="&#xcb;" horiz-adv-x="1423" d="M123 0v1597h1151v-460h-529v-131h527v-392h-527v-151h564v-463h-1186zM159 1925q0 92 70.5 162.5t181 70.5t169.5 -57t59 -144q0 -159 -138 -220q-48 -21 -110 -21q-115 0 -173.5 58.5t-58.5 150.5zM766.5 1924.5q0.5 91.5 69.5 162.5t180 71t170 -57t59 -144 q0 -160 -136 -220q-48 -21 -109 -21q-113 0 -173.5 58.5t-60 150z" />
<glyph unicode="&#xcc;" horiz-adv-x="866" d="M-79 2350h407l144 -499q8 -26 8 -54q0 -55 -36.5 -55t-92.5 70zM123 0v1597h622v-1597h-622z" />
<glyph unicode="&#xcd;" horiz-adv-x="866" d="M123 0v1597h622v-1597h-622zM406 1798q0 28 8 54l143 499h408l-430 -538q-56 -70 -92.5 -70t-36.5 55z" />
<glyph unicode="&#xce;" horiz-adv-x="866" d="M80 1814q0 28 16 64l205 417q21 44 61.5 67t82.5 23q97 0 141 -90l205 -417q14 -28 14 -63.5t-29 -35.5q-42 0 -106 60l-227 206l-226 -206q-66 -60 -101.5 -60t-35.5 35zM123 0v1597h622v-1597h-622z" />
<glyph unicode="&#xcf;" horiz-adv-x="866" d="M-102 1925q0 92 70.5 162.5t181 70.5t169.5 -57t59 -144q0 -159 -138 -220q-48 -21 -110 -21q-115 0 -173.5 58.5t-58.5 150.5zM123 0v1597h622v-1597h-622zM505.5 1924.5q0.5 91.5 69.5 162.5t180 71t170 -57t59 -144q0 -160 -136 -220q-48 -21 -109 -21 q-113 0 -173.5 58.5t-60 150z" />
<glyph unicode="&#xd0;" horiz-adv-x="1812" d="M49 748v235h74v614q607 45 792.5 45t293 -34.5t192.5 -95.5q165 -117 249.5 -311t84.5 -393t-64.5 -347.5t-178.5 -250.5q-233 -211 -603 -210h-766v748h-74zM745 481q53 45 115 89q238 171 238 358q0 91 -54 168.5t-140.5 77.5t-158.5 -84v-107h177v-235h-177v-267z" />
<glyph unicode="&#xd1;" horiz-adv-x="1843" d="M123 0v1597h162l872 -622v622h563v-1597h-215l-821 549v-549h-561zM503 1820q-1 278 149 328q46 16 104 16q86 0 269.5 -52t232 -52t71 9.5t40.5 21t30.5 21t21.5 9.5q16 0 16 -16q0 -280 -141 -332q-43 -16 -99 -16t-125.5 16.5t-198 53t-192.5 36.5t-95 -20.5 t-44 -29.5t-20 -9q-19 0 -19 16z" />
<glyph unicode="&#xd2;" horiz-adv-x="1942" d="M74 803.5q0 246.5 120 436.5t322 296t418.5 106t381.5 -58t287.5 -166.5t192.5 -265.5t70 -355q0 -246 -125 -437.5t-333 -295t-444 -103.5q-355 0 -616 230q-83 73 -144 167q-130 199 -130 445.5zM439 2350h407l144 -499q8 -26 8 -54q0 -55 -36.5 -55t-92.5 70zM723 647 q0 -166 168 -166q67 -1 153 89q125 132 177 320q16 58 16 100q0 169 -162 169q-70 0 -156 -88q-129 -133 -180 -317q-16 -58 -16 -107z" />
<glyph unicode="&#xd3;" horiz-adv-x="1942" d="M74 803.5q0 246.5 120 436.5t322 296t418.5 106t381.5 -58t287.5 -166.5t192.5 -265.5t70 -355q0 -246 -125 -437.5t-333 -295t-444 -103.5q-355 0 -616 230q-83 73 -144 167q-130 199 -130 445.5zM723 647q0 -166 168 -166q67 -1 153 89q125 132 177 320q16 58 16 100 q0 169 -162 169q-70 0 -156 -88q-129 -133 -180 -317q-16 -58 -16 -107zM924 1798q0 28 8 54l143 499h408l-430 -538q-56 -70 -92.5 -70t-36.5 55z" />
<glyph unicode="&#xd4;" horiz-adv-x="1942" d="M74 803.5q0 246.5 120 436.5t322 296t418.5 106t381.5 -58t287.5 -166.5t192.5 -265.5t70 -355q0 -246 -125 -437.5t-333 -295t-444 -103.5q-355 0 -616 230q-83 73 -144 167q-130 199 -130 445.5zM598 1814q0 28 16 64l205 417q21 44 61.5 67t82.5 23q97 0 141 -90 l205 -417q14 -28 14 -63.5t-29 -35.5q-42 0 -106 60l-227 206l-226 -206q-66 -60 -101.5 -60t-35.5 35zM723 647q0 -166 168 -166q67 -1 153 89q125 132 177 320q16 58 16 100q0 169 -162 169q-70 0 -156 -88q-129 -133 -180 -317q-16 -58 -16 -107z" />
<glyph unicode="&#xd5;" horiz-adv-x="1942" d="M74 803.5q0 246.5 120 436.5t322 296t418.5 106t381.5 -58t287.5 -166.5t192.5 -265.5t70 -355q0 -246 -125 -437.5t-333 -295t-444 -103.5q-355 0 -616 230q-83 73 -144 167q-130 199 -130 445.5zM503 1820q-1 278 149 328q46 16 104 16q86 0 269.5 -52t232 -52t71 9.5 t40.5 21t30.5 21t21.5 9.5q16 0 16 -16q0 -280 -141 -332q-43 -16 -99 -16t-125.5 16.5t-198 53t-192.5 36.5t-95 -20.5t-44 -29.5t-20 -9q-19 0 -19 16zM723 647q0 -166 168 -166q67 -1 153 89q125 132 177 320q16 58 16 100q0 169 -162 169q-70 0 -156 -88 q-129 -133 -180 -317q-16 -58 -16 -107z" />
<glyph unicode="&#xd6;" horiz-adv-x="1942" d="M74 803.5q0 246.5 120 436.5t322 296t418.5 106t381.5 -58t287.5 -166.5t192.5 -265.5t70 -355q0 -246 -125 -437.5t-333 -295t-444 -103.5q-355 0 -616 230q-83 73 -144 167q-130 199 -130 445.5zM415 1925q0 92 70.5 162.5t181 70.5t169.5 -57t59 -144 q0 -159 -138 -220q-48 -21 -110 -21q-115 0 -173.5 58.5t-58.5 150.5zM723 647q0 -166 168 -166q67 -1 153 89q125 132 177 320q16 58 16 100q0 169 -162 169q-70 0 -156 -88q-129 -133 -180 -317q-16 -58 -16 -107zM1022.5 1924.5q0.5 91.5 69.5 162.5t180 71t170 -57 t59 -144q0 -160 -136 -220q-48 -21 -109 -21q-113 0 -173.5 58.5t-60 150z" />
<glyph unicode="&#xd7;" horiz-adv-x="1171" d="M66 389l260 262l-260 260l260 260l262 -260l258 260l262 -262l-260 -258l260 -260l-262 -260l-258 258l-262 -260z" />
<glyph unicode="&#xd8;" horiz-adv-x="1858" d="M63 789.5q1 260.5 120 450.5t322 296t449 106q126 0 246 -28l62 190l143 -41l-62 -192q237 -94 375 -294.5t137 -479.5q-1 -372 -273 -610q-166 -145 -398 -199q-219 -50 -422 -6l-68 -207l-143 41l65 204q-246 96 -400 302.5t-153 467zM713 647q0 -166 168 -166 q67 -1 153 89q125 132 177 320q16 58 16 100q0 169 -162 169q-70 0 -156 -88q-129 -133 -180 -317q-16 -58 -16 -107z" />
<glyph unicode="&#xd9;" horiz-adv-x="1745" d="M106 637v960h631v-942q0 -142 95 -185q33 -15 79 -15q130 0 164 124q10 37 10 80v938h553v-960q0 -676 -737 -676q-795 0 -795 676zM389 2350h407l144 -499q8 -26 8 -54q0 -55 -36.5 -55t-92.5 70z" />
<glyph unicode="&#xda;" horiz-adv-x="1745" d="M106 637v960h631v-942q0 -142 95 -185q33 -15 79 -15q130 0 164 124q10 37 10 80v938h553v-960q0 -676 -737 -676q-795 0 -795 676zM875 1798q0 28 8 54l143 499h408l-430 -538q-56 -70 -92.5 -70t-36.5 55z" />
<glyph unicode="&#xdb;" horiz-adv-x="1745" d="M106 637v960h631v-942q0 -142 95 -185q33 -15 79 -15q130 0 164 124q10 37 10 80v938h553v-960q0 -676 -737 -676q-795 0 -795 676zM549 1814q0 28 16 64l205 417q21 44 61.5 67t82.5 23q97 0 141 -90l205 -417q14 -28 14 -63.5t-29 -35.5q-42 0 -106 60l-227 206 l-226 -206q-66 -60 -101.5 -60t-35.5 35z" />
<glyph unicode="&#xdc;" horiz-adv-x="1745" d="M106 637v960h631v-942q0 -142 95 -185q33 -15 79 -15q130 0 164 124q10 37 10 80v938h553v-960q0 -676 -737 -676q-795 0 -795 676zM366 1925q0 92 70.5 162.5t181 70.5t169.5 -57t59 -144q0 -159 -138 -220q-48 -21 -110 -21q-115 0 -173.5 58.5t-58.5 150.5z M973.5 1924.5q0.5 91.5 69.5 162.5t180 71t170 -57t59 -144q0 -160 -136 -220q-48 -21 -109 -21q-113 0 -173.5 58.5t-60 150z" />
<glyph unicode="&#xdd;" horiz-adv-x="1718" d="M43 1597h713l159 -327l164 327h596l-497 -974v-623h-648v623zM879 1798q0 28 8 54l143 499h408l-430 -538q-56 -70 -92.5 -70t-36.5 55z" />
<glyph unicode="&#xde;" horiz-adv-x="1661" d="M61 0v1599h654v-131q215 68 371 68q278 0 419 -154q123 -135 123 -362q0 -367 -236.5 -585t-676.5 -228v-207h-654zM711 649l110 53q109 52 153 103q81 94 81 194q0 50 -28 83.5t-79 33.5q-79 0 -237 -110v-357z" />
<glyph unicode="&#xdf;" horiz-adv-x="1806" d="M55 -55v1044q0 310 290 468q253 138 630 138q282 0 473.5 -101t191.5 -275q0 -147 -136 -231q-44 -27 -97 -52q118 -38 163 -64q95 -54 142.5 -142t48 -228.5t-42 -229.5t-113.5 -150q-211 -181 -759 -181h-12q-9 0 -17 2v430q40 23 82 46q154 84 154 231q0 108 -92 108 q-30 0 -79 -14.5t-65 -18.5v225q158 83 158 197q-1 42 -27 64t-58 22q-54 0 -132 -49.5t-78 -71.5v-1167h-625z" />
<glyph unicode="&#xe0;" horiz-adv-x="1724" d="M84 543q0 131 26 227q52 191 182 321q62 64 138 108q156 91 329.5 91t304.5 -115q42 -37 73 -85l143 153h328v-1243h-328l-143 207q-164 -242 -497 -243q-92 -1 -196.5 35.5t-184.5 111t-127.5 188t-47.5 244.5zM365 2039h407l144 -499q8 -26 8 -54q0 -55 -36.5 -55 t-92.5 70zM680 516q0 -88 54 -124q50 -33 152.5 9.5t182.5 110.5v354q-36 21 -86 21t-105.5 -35.5t-99.5 -89.5q-98 -121 -98 -246z" />
<glyph unicode="&#xe1;" horiz-adv-x="1724" d="M84 543q0 131 26 227q52 191 182 321q62 64 138 108q156 91 329.5 91t304.5 -115q42 -37 73 -85l143 153h328v-1243h-328l-143 207q-164 -242 -497 -243q-92 -1 -196.5 35.5t-184.5 111t-127.5 188t-47.5 244.5zM680 516q0 -88 54 -124q50 -33 152.5 9.5t182.5 110.5v354 q-36 21 -86 21t-105.5 -35.5t-99.5 -89.5q-98 -121 -98 -246zM850 1487q0 28 8 54l143 499h408l-430 -538q-56 -70 -92.5 -70t-36.5 55z" />
<glyph unicode="&#xe2;" horiz-adv-x="1724" d="M84 543q0 131 26 227q52 191 182 321q62 64 138 108q156 91 329.5 91t304.5 -115q42 -37 73 -85l143 153h328v-1243h-328l-143 207q-164 -242 -497 -243q-92 -1 -196.5 35.5t-184.5 111t-127.5 188t-47.5 244.5zM524 1503q0 28 16 64l205 417q21 44 61.5 67t82.5 23 q97 0 141 -90l205 -417q14 -28 14 -63.5t-29 -35.5q-42 0 -106 60l-227 206l-226 -206q-66 -60 -101.5 -60t-35.5 35zM680 516q0 -88 54 -124q50 -33 152.5 9.5t182.5 110.5v354q-36 21 -86 21t-105.5 -35.5t-99.5 -89.5q-98 -121 -98 -246z" />
<glyph unicode="&#xe3;" horiz-adv-x="1724" d="M84 543q0 131 26 227q52 191 182 321q62 64 138 108q156 91 329.5 91t304.5 -115q42 -37 73 -85l143 153h328v-1243h-328l-143 207q-164 -242 -497 -243q-92 -1 -196.5 35.5t-184.5 111t-127.5 188t-47.5 244.5zM457 1509q-1 278 149 328q46 16 104 16q86 0 269.5 -52 t232 -52t71 9.5t40.5 21t30.5 21t21.5 9.5q16 0 16 -16q0 -280 -141 -332q-43 -16 -99 -16t-125.5 16.5t-198 53t-192.5 36.5t-95 -20.5t-44 -29.5t-20 -9q-19 0 -19 16zM680 516q0 -88 54 -124q50 -33 152.5 9.5t182.5 110.5v354q-36 21 -86 21t-105.5 -35.5t-99.5 -89.5 q-98 -121 -98 -246z" />
<glyph unicode="&#xe4;" horiz-adv-x="1724" d="M84 543q0 131 26 227q52 191 182 321q62 64 138 108q156 91 329.5 91t304.5 -115q42 -37 73 -85l143 153h328v-1243h-328l-143 207q-164 -242 -497 -243q-92 -1 -196.5 35.5t-184.5 111t-127.5 188t-47.5 244.5zM342 1614q0 92 70.5 162.5t181 70.5t169.5 -57t59 -144 q0 -159 -138 -220q-48 -21 -110 -21q-115 0 -173.5 58.5t-58.5 150.5zM680 516q0 -88 54 -124q50 -33 152.5 9.5t182.5 110.5v354q-36 21 -86 21t-105.5 -35.5t-99.5 -89.5q-98 -121 -98 -246zM949.5 1613.5q0.5 91.5 69.5 162.5t180 71t170 -57t59 -144q0 -160 -136 -220 q-48 -21 -109 -21q-113 0 -173.5 58.5t-60 150z" />
<glyph unicode="&#xe5;" horiz-adv-x="1724" d="M84 543q0 131 26 227q52 191 182 321q62 64 138 108q156 91 329.5 91t304.5 -115q42 -37 73 -85l143 153h328v-1243h-328l-143 207q-164 -242 -497 -243q-92 -1 -196.5 35.5t-184.5 111t-127.5 188t-47.5 244.5zM558.5 1754q0.5 149 96 232t227 84t229 -83t97.5 -233.5 t-96.5 -234t-229 -84.5t-228.5 85t-95.5 234zM680 516q0 -88 54 -124q50 -33 152.5 9.5t182.5 110.5v354q-36 21 -86 21t-105.5 -35.5t-99.5 -89.5q-98 -121 -98 -246zM741 1756q0 -54 39 -96t90 -42q82 0 120 40.5t38 80.5q0 68 -39 110t-106 41q-101 -1 -133 -85 q-9 -24 -9 -49z" />
<glyph unicode="&#xe6;" horiz-adv-x="2468" d="M74 565q0 209 110 381q157 244 458 320q95 24 156 24t96.5 -4.5t77.5 -13.5q224 -45 316 -146q215 166 506.5 166t431 -119t139 -294t-167 -311t-450.5 -136h-53q-28 0 -52 2q0 -119 127 -130q35 -3 68 -3q85 0 213.5 39t230.5 127l62 -311q-223 -193 -674 -193 q-229 0 -405 120q-58 40 -105 93q-271 -213 -511.5 -213.5t-407 155t-166.5 447.5zM629 516q-1 -88 53 -124q50 -34 153 9t183 111v354q-36 21 -86 21t-105.5 -35.5t-99.5 -89.5q-98 -121 -98 -246zM1642 662l220 49l18 153l2 23q0 88 -82 88q-94 -9 -122 -97 q-14 -42 -19.5 -97.5t-16.5 -118.5z" />
<glyph unicode="&#xe7;" horiz-adv-x="1243" d="M38 588q0 314 216 509t562 195q143 0 258 -43v-385q-27 23 -76 23t-105 -31t-102 -83q-106 -120 -105.5 -246.5t76.5 -142.5q20 -4 40 -5q101 0 292 143v-489q-328 -124 -605 -35t-393 318q-58 116 -58 272zM426 -486.5q0 27.5 18.5 46t33.5 18.5t34.5 -10t73.5 -32 t92 -22q115 2 114 61q-1 27 -16 44q-47 53 -161 53l94 328h137l-61 -190l22 -2q102 -10 145 -32q112 -57 112 -167q-1 -126 -86.5 -183t-209.5 -57q-176 0 -303 86q-39 31 -39 58.5z" />
<glyph unicode="&#xe8;" horiz-adv-x="1505" d="M74 571q0 220 114 395q106 160 287 243t391 83q272 0 411.5 -119t139 -294t-167.5 -311t-450 -136h-55q-26 0 -50 2q0 -119 127 -130q35 -3 68 -3q85 0 213.5 39t230.5 127l62 -311q-223 -193 -674 -193q-259 0 -445 151q-202 165 -202 457zM289 2037h407l144 -499 q8 -26 8 -54q0 -55 -36.5 -55t-92.5 70zM694 662l219 49l19 153l2 23q0 88 -82 88q-94 -9 -122 -97q-14 -42 -19.5 -97.5t-16.5 -118.5z" />
<glyph unicode="&#xe9;" horiz-adv-x="1505" d="M74 571q0 220 114 395q106 160 287 243t391 83q272 0 411.5 -119t139 -294t-167.5 -311t-450 -136h-55q-26 0 -50 2q0 -119 127 -130q35 -3 68 -3q85 0 213.5 39t230.5 127l62 -311q-223 -193 -674 -193q-259 0 -445 151q-202 165 -202 457zM694 662l219 49l19 153l2 23 q0 88 -82 88q-94 -9 -122 -97q-14 -42 -19.5 -97.5t-16.5 -118.5zM774 1485q0 28 8 54l143 499h408l-430 -538q-56 -70 -92.5 -70t-36.5 55z" />
<glyph unicode="&#xea;" horiz-adv-x="1505" d="M74 571q0 220 114 395q106 160 287 243t391 83q272 0 411.5 -119t139 -294t-167.5 -311t-450 -136h-55q-26 0 -50 2q0 -119 127 -130q35 -3 68 -3q85 0 213.5 39t230.5 127l62 -311q-223 -193 -674 -193q-259 0 -445 151q-202 165 -202 457zM448 1501q0 28 16 64l205 417 q21 44 61.5 67t82.5 23q97 0 141 -90l205 -417q14 -28 14 -63.5t-29 -35.5q-42 0 -106 60l-227 206l-226 -206q-66 -60 -101.5 -60t-35.5 35zM694 662l219 49l19 153l2 23q0 88 -82 88q-94 -9 -122 -97q-14 -42 -19.5 -97.5t-16.5 -118.5z" />
<glyph unicode="&#xeb;" horiz-adv-x="1505" d="M74 571q0 220 114 395q106 160 287 243t391 83q272 0 411.5 -119t139 -294t-167.5 -311t-450 -136h-55q-26 0 -50 2q0 -119 127 -130q35 -3 68 -3q85 0 213.5 39t230.5 127l62 -311q-223 -193 -674 -193q-259 0 -445 151q-202 165 -202 457zM266 1612q0 92 70.5 162.5 t181 70.5t169.5 -57t59 -144q0 -159 -138 -220q-48 -21 -110 -21q-115 0 -173.5 58.5t-58.5 150.5zM694 662l219 49l19 153l2 23q0 88 -82 88q-94 -9 -122 -97q-14 -42 -19.5 -97.5t-16.5 -118.5zM873.5 1611.5q0.5 91.5 69.5 162.5t180 71t170 -57t59 -144 q0 -160 -136 -220q-48 -21 -109 -21q-113 0 -173.5 58.5t-60 150z" />
<glyph unicode="&#xec;" horiz-adv-x="700" d="M-167 2039h407l144 -499q8 -26 8 -54q0 -55 -36.5 -55t-92.5 70zM61 0v1243h578v-1243h-578z" />
<glyph unicode="&#xed;" horiz-adv-x="700" d="M61 0v1243h578v-1243h-578zM318 1487q0 28 8 54l143 499h408l-430 -538q-56 -70 -92.5 -70t-36.5 55z" />
<glyph unicode="&#xee;" horiz-adv-x="700" d="M-7 1503q0 28 16 64l205 417q21 44 61.5 67t82.5 23q97 0 141 -90l205 -417q14 -28 14 -63.5t-29 -35.5q-42 0 -106 60l-227 206l-226 -206q-66 -60 -101.5 -60t-35.5 35zM61 0v1243h578v-1243h-578z" />
<glyph unicode="&#xef;" horiz-adv-x="700" d="M-190 1614q0 92 70.5 162.5t181 70.5t169.5 -57t59 -144q0 -159 -138 -220q-48 -21 -110 -21q-115 0 -173.5 58.5t-58.5 150.5zM61 0v1243h578v-1243h-578zM417.5 1613.5q0.5 91.5 69.5 162.5t180 71t170 -57t59 -144q0 -160 -136 -220q-48 -21 -109 -21 q-113 0 -173.5 58.5t-60 150z" />
<glyph unicode="&#xf0;" horiz-adv-x="1663" d="M74 506q0 244 191 370q163 108 449 107q146 0 314 -55q0 239 -215 317l-53 -182l-209 41l51 174q-170 0 -338 -49l-57 303q268 65 481 65h10l78 258l207 -40l-72 -242q301 -66 488 -290t188 -556q0 -383 -253 -585q-225 -180 -568 -179q-276 0 -462 112 q-230 139 -230 431zM633.5 432q0.5 -94 52.5 -130q18 -12 45 -13q131 0 291 131v274q-25 21 -78 21q-108 0 -209.5 -94.5t-101 -188.5z" />
<glyph unicode="&#xf1;" horiz-adv-x="1681" d="M121 0v1243h328l143 -194q80 111 221.5 176t264.5 65q226 0 358.5 -120t132.5 -322v-848h-598v600q0 305 -176 305q-80 0 -80 -129v-776h-594zM378 1509q-1 278 149 328q46 16 104 16q86 0 269.5 -52t232 -52t71 9.5t40.5 21t30.5 21t21.5 9.5q16 0 16 -16 q0 -280 -141 -332q-43 -16 -99 -16t-125.5 16.5t-198 53t-192.5 36.5t-95 -20.5t-44 -29.5t-20 -9q-19 0 -19 16z" />
<glyph unicode="&#xf2;" horiz-adv-x="1587" d="M74 627.5q0 291.5 207 477t511 185.5t511 -181.5t208 -485.5q1 -195 -99 -345t-267 -232t-357 -83q-286 0 -493 181q-221 192 -221 483.5zM262 2037h407l144 -499q8 -26 8 -54q0 -55 -36.5 -55t-92.5 70zM602 486.5q0 -81.5 62 -109.5q22 -10 54 -10t67 19.5t70 52.5 q73 69 128 167.5t55 176.5t-56 106q-20 10 -51.5 10t-69.5 -18.5t-75 -50.5q-78 -68 -131 -165t-53 -178.5z" />
<glyph unicode="&#xf3;" horiz-adv-x="1587" d="M74 627.5q0 291.5 207 477t511 185.5t511 -181.5t208 -485.5q1 -195 -99 -345t-267 -232t-357 -83q-286 0 -493 181q-221 192 -221 483.5zM602 486.5q0 -81.5 62 -109.5q22 -10 54 -10t67 19.5t70 52.5q73 69 128 167.5t55 176.5t-56 106q-20 10 -51.5 10t-69.5 -18.5 t-75 -50.5q-78 -68 -131 -165t-53 -178.5zM748 1485q0 28 8 54l143 499h408l-430 -538q-56 -70 -92.5 -70t-36.5 55z" />
<glyph unicode="&#xf4;" horiz-adv-x="1587" d="M74 627.5q0 291.5 207 477t511 185.5t511 -181.5t208 -485.5q1 -195 -99 -345t-267 -232t-357 -83q-286 0 -493 181q-221 192 -221 483.5zM422 1501q0 28 16 64l205 417q21 44 61.5 67t82.5 23q97 0 141 -90l205 -417q14 -28 14 -63.5t-29 -35.5q-42 0 -106 60l-227 206 l-226 -206q-66 -60 -101.5 -60t-35.5 35zM602 486.5q0 -81.5 62 -109.5q22 -10 54 -10t67 19.5t70 52.5q73 69 128 167.5t55 176.5t-56 106q-20 10 -51.5 10t-69.5 -18.5t-75 -50.5q-78 -68 -131 -165t-53 -178.5z" />
<glyph unicode="&#xf5;" horiz-adv-x="1587" d="M74 627.5q0 291.5 207 477t511 185.5t511 -181.5t208 -485.5q1 -195 -99 -345t-267 -232t-357 -83q-286 0 -493 181q-221 192 -221 483.5zM327 1507q-1 278 149 328q46 16 104 16q86 0 269.5 -52t232 -52t71 9.5t40.5 21t30.5 21t21.5 9.5q16 0 16 -16q0 -280 -141 -332 q-43 -16 -99 -16t-125.5 16.5t-198 53t-192.5 36.5t-95 -20.5t-44 -29.5t-20 -9q-19 0 -19 16zM602 486.5q0 -81.5 62 -109.5q22 -10 54 -10t67 19.5t70 52.5q73 69 128 167.5t55 176.5t-56 106q-20 10 -51.5 10t-69.5 -18.5t-75 -50.5q-78 -68 -131 -165t-53 -178.5z" />
<glyph unicode="&#xf6;" horiz-adv-x="1587" d="M74 627.5q0 291.5 207 477t511 185.5t511 -181.5t208 -485.5q1 -195 -99 -345t-267 -232t-357 -83q-286 0 -493 181q-221 192 -221 483.5zM239 1612q0 92 70.5 162.5t181 70.5t169.5 -57t59 -144q0 -159 -138 -220q-48 -21 -110 -21q-115 0 -173.5 58.5t-58.5 150.5z M602 486.5q0 -81.5 62 -109.5q22 -10 54 -10t67 19.5t70 52.5q73 69 128 167.5t55 176.5t-56 106q-20 10 -51.5 10t-69.5 -18.5t-75 -50.5q-78 -68 -131 -165t-53 -178.5zM846.5 1611.5q0.5 91.5 69.5 162.5t180 71t170 -57t59 -144q0 -160 -136 -220q-48 -21 -109 -21 q-113 0 -173.5 58.5t-60 150z" />
<glyph unicode="&#xf7;" horiz-adv-x="717" d="M82 250q0 106 84 196t209 89.5t193 -74t68 -180.5t-79.5 -194t-214.5 -87t-197.5 72t-62.5 178zM82 1003.5q0 106.5 84 196.5t210 90t193 -74t67 -181t-80 -193.5t-215 -86t-197 71t-62 177z" />
<glyph unicode="&#xf8;" horiz-adv-x="1587" d="M74 627q0 292 210 480q97 87 226 135t246.5 48t224.5 -20l72 184l164 -55l-70 -187q260 -124 338 -394q26 -90 26 -193t-27 -191q-55 -176 -193 -294q-216 -176 -507 -177q-58 0 -120 10l-62 -157l-164 55l58 147q-187 78 -304.5 238t-117.5 371zM602 486.5 q0 -81.5 62 -109.5q22 -10 54 -10t67 19.5t70 52.5q73 69 128 167.5t55 176.5t-56 106q-20 10 -51.5 10t-69.5 -18.5t-75 -50.5q-78 -68 -131 -165t-53 -178.5z" />
<glyph unicode="&#xf9;" horiz-adv-x="1679" d="M113 395v848h598v-579q0 -328 159 -328q80 0 93 78q4 24 4 53v776h594v-1243h-328l-143 195q-127 -173 -367 -225q-294 -63 -474 100q-136 123 -136 325zM320 2037h407l144 -499q8 -26 8 -54q0 -55 -36.5 -55t-92.5 70z" />
<glyph unicode="&#xfa;" horiz-adv-x="1679" d="M113 395v848h598v-579q0 -328 159 -328q80 0 93 78q4 24 4 53v776h594v-1243h-328l-143 195q-127 -173 -367 -225q-294 -63 -474 100q-136 123 -136 325zM805 1485q0 28 8 54l143 499h408l-430 -538q-56 -70 -92.5 -70t-36.5 55z" />
<glyph unicode="&#xfb;" horiz-adv-x="1679" d="M113 395v848h598v-579q0 -328 159 -328q80 0 93 78q4 24 4 53v776h594v-1243h-328l-143 195q-127 -173 -367 -225q-294 -63 -474 100q-136 123 -136 325zM479 1501q0 28 16 64l205 417q21 44 61.5 67t82.5 23q97 0 141 -90l205 -417q14 -28 14 -63.5t-29 -35.5 q-42 0 -106 60l-227 206l-226 -206q-66 -60 -101.5 -60t-35.5 35z" />
<glyph unicode="&#xfc;" horiz-adv-x="1679" d="M113 395v848h598v-579q0 -328 159 -328q80 0 93 78q4 24 4 53v776h594v-1243h-328l-143 195q-127 -173 -367 -225q-294 -63 -474 100q-136 123 -136 325zM297 1612q0 92 70.5 162.5t181 70.5t169.5 -57t59 -144q0 -159 -138 -220q-48 -21 -110 -21q-115 0 -173.5 58.5 t-58.5 150.5zM904.5 1611.5q0.5 91.5 69.5 162.5t180 71t170 -57t59 -144q0 -160 -136 -220q-48 -21 -109 -21q-113 0 -173.5 58.5t-60 150z" />
<glyph unicode="&#xfd;" horiz-adv-x="1651" d="M88 1243h596l215 -481l201 481h524l-467 -1161q-93 -227 -205 -335q-137 -132 -338 -132q-275 0 -413 57v355q106 -29 266 -29q101 0 135 86q10 26 10 54t-10 59zM852 1485q0 28 8 54l143 499h408l-430 -538q-56 -70 -92.5 -70t-36.5 55z" />
<glyph unicode="&#xfe;" horiz-adv-x="1722" d="M102 -354v1951h582v-501q128 122 312 155q50 9 89 9q261 0 406 -175t145 -415t-185 -446q-143 -158 -399 -227q-134 -36 -307 -36h-65v-315h-578zM682 336h98q100 0 195.5 121.5t95.5 249.5q-1 89 -53 125q-18 12 -45 12q-131 0 -291 -131v-377z" />
<glyph unicode="&#xff;" horiz-adv-x="1651" d="M88 1243h596l215 -481l201 481h524l-467 -1161q-93 -227 -205 -335q-137 -132 -338 -132q-275 0 -413 57v355q106 -29 266 -29q101 0 135 86q10 26 10 54t-10 59zM344 1612q0 92 70.5 162.5t181 70.5t169.5 -57t59 -144q0 -159 -138 -220q-48 -21 -110 -21 q-115 0 -173.5 58.5t-58.5 150.5zM951.5 1611.5q0.5 91.5 69.5 162.5t180 71t170 -57t59 -144q0 -160 -136 -220q-48 -21 -109 -21q-113 0 -173.5 58.5t-60 150z" />
<glyph unicode="&#x152;" horiz-adv-x="2363" d="M47 739q0 186 68.5 343.5t192 272.5t295 179.5t376.5 64.5h1323v-436h-504v-151h483v-391h-483v-152h504v-469h-1499q-319 0 -539 215q-214 209 -217 524zM696 647q0 -166 168 -166q66 -1 152 89q125 132 178 320q16 58 16 107q0 162 -161 162q-71 0 -157 -88 q-129 -131 -180 -317q-16 -58 -16 -107z" />
<glyph unicode="&#x153;" horiz-adv-x="2544" d="M74 612q0 268 177 463q195 215 531 215q263 0 451 -184q214 186 526 186q245 0 372 -112.5t127 -288t-155.5 -327.5t-410.5 -152h-38t-42 2q0 -80 106 -86q30 -2 60 -2q78 0 163.5 25.5t223.5 115.5l61 -311q-76 -96 -243 -144.5t-349 -48.5q-244 0 -424 174 q-216 -174 -489 -174q-307 -1 -477 190t-170 459zM606 506q0 -125 115 -125q77 1 165 140.5t87 254.5q0 51 -26.5 86t-70 35t-72.5 -18q-58 -36 -110 -119q-88 -129 -88 -254zM1559 662l206 49l19 153l2 23q0 88 -82 88q-82 -9 -110 -97q-14 -42 -20 -97.5t-15 -118.5z" />
<glyph unicode="&#x178;" horiz-adv-x="1718" d="M43 1597h713l159 -327l164 327h596l-497 -974v-623h-648v623zM370 1925q0 92 70.5 162.5t181 70.5t169.5 -57t59 -144q0 -159 -138 -220q-48 -21 -110 -21q-115 0 -173.5 58.5t-58.5 150.5zM977.5 1924.5q0.5 91.5 69.5 162.5t180 71t170 -57t59 -144q0 -160 -136 -220 q-48 -21 -109 -21q-113 0 -173.5 58.5t-60 150z" />
<glyph unicode="&#x2c6;" horiz-adv-x="819" d="M47 940q0 28 16 64l205 417q21 44 61.5 67t82.5 23q97 0 141 -90l205 -417q14 -28 14 -63.5t-29 -35.5q-42 0 -106 60l-227 206l-226 -206q-66 -60 -101.5 -60t-35.5 35z" />
<glyph unicode="&#x2dc;" horiz-adv-x="1098" d="M145 946q-1 278 149 328q46 16 104 16q86 0 269.5 -52t232 -52t71 9.5t40.5 21t30.5 21t21.5 9.5q16 0 16 -16q0 -280 -141 -332q-43 -16 -99 -16t-125.5 16.5t-198 53t-192.5 36.5t-95 -20.5t-44 -29.5t-20 -9q-19 0 -19 16z" />
<glyph unicode="&#x2000;" horiz-adv-x="1192" />
<glyph unicode="&#x2001;" horiz-adv-x="2385" />
<glyph unicode="&#x2002;" horiz-adv-x="1192" />
<glyph unicode="&#x2003;" horiz-adv-x="2385" />
<glyph unicode="&#x2004;" horiz-adv-x="795" />
<glyph unicode="&#x2005;" horiz-adv-x="596" />
<glyph unicode="&#x2006;" horiz-adv-x="397" />
<glyph unicode="&#x2007;" horiz-adv-x="397" />
<glyph unicode="&#x2008;" horiz-adv-x="298" />
<glyph unicode="&#x2009;" horiz-adv-x="477" />
<glyph unicode="&#x200a;" horiz-adv-x="132" />
<glyph unicode="&#x2010;" horiz-adv-x="1008" d="M123 479v432h764v-432h-764z" />
<glyph unicode="&#x2011;" horiz-adv-x="1008" d="M123 479v432h764v-432h-764z" />
<glyph unicode="&#x2012;" horiz-adv-x="1008" d="M123 479v432h764v-432h-764z" />
<glyph unicode="&#x2013;" horiz-adv-x="1157" d="M123 614v297h913v-297h-913z" />
<glyph unicode="&#x2014;" horiz-adv-x="1157" d="M123 614v297h913v-297h-913z" />
<glyph unicode="&#x2018;" horiz-adv-x="811" d="M82 713v403q0 354 334 450q115 33 274 33v-258q-115 0 -158 -103q-20 -46 -22 -103h180v-422h-608z" />
<glyph unicode="&#x2019;" horiz-adv-x="809" d="M123 713v258q111 0 157 103q19 46 23 104h-180v421h608v-403q0 -354 -334 -450q-115 -33 -274 -33z" />
<glyph unicode="&#x201a;" horiz-adv-x="809" d="M123 0v422h608v-404q0 -354 -334 -450q-115 -33 -274 -33v258q111 0 157 103q19 46 23 104h-180z" />
<glyph unicode="&#x201c;" horiz-adv-x="1587" d="M104 713v403q0 354 335 450q115 33 274 33v-258q-109 0 -158 -103q-20 -46 -23 -103h181v-422h-609zM856 713v403q0 354 334 450q115 33 274 33v-258q-115 0 -158 -103q-20 -46 -22 -103h180v-422h-608z" />
<glyph unicode="&#x201d;" horiz-adv-x="1585" d="M123 713v258q111 0 157 103q19 46 23 104h-180v421h608v-403q0 -354 -334 -450q-115 -33 -274 -33zM874 713v258q112 0 158 103q20 46 23 104h-181v421h609v-403q0 -354 -335 -450q-115 -33 -274 -33z" />
<glyph unicode="&#x201e;" horiz-adv-x="1585" d="M123 0v422h608v-404q0 -354 -334 -450q-115 -33 -274 -33v258q111 0 157 103q19 46 23 104h-180zM874 0v422h609v-404q0 -354 -335 -450q-115 -33 -274 -33v258q112 0 158 103q20 46 23 104h-181z" />
<glyph unicode="&#x2022;" horiz-adv-x="760" d="M-6 318q0 152 116 274.5t296 122.5q94 0 161 -29.5t111 -79.5q88 -98 88 -252t-108 -272.5t-296 -118.5t-278 101.5t-90 253.5z" />
<glyph unicode="&#x202f;" horiz-adv-x="477" />
<glyph unicode="&#x2039;" horiz-adv-x="1010" d="M0 789.5q0 57.5 39 80.5l852 596v-565l-223 -135l223 -129v-498l-852 572q-39 21 -39 78.5z" />
<glyph unicode="&#x203a;" horiz-adv-x="1014" d="M123 139v566l223 135l-223 129v497l852 -571q39 -21 39 -76.5t-39 -83.5z" />
<glyph unicode="&#x205f;" horiz-adv-x="596" />
<glyph unicode="&#x20ac;" horiz-adv-x="1663" d="M33 643v133h168q6 103 10 125h-178v133h207q88 296 336.5 467.5t597.5 171.5q217 0 348 -49v-424q-73 23 -134 23q-114 0 -214 -50.5t-160 -138.5h405v-133h-465q-10 -46 -10 -92v-33h475v-133h-450q67 -194 301 -194q118 0 282 86v-517q-217 -86 -460 -86 q-336 0 -591.5 188t-293.5 523h-174z" />
<glyph unicode="&#x2122;" horiz-adv-x="2699" d="M49 1235v364h1067v-364h-313v-766h-443v766h-311zM1212 469v1130h158l549 -512l563 512h156v-1130h-465v365l-291 -314l-280 307v-358h-390z" />
<glyph unicode="&#x25fc;" horiz-adv-x="1245" d="M0 0v1245h1245v-1245h-1245z" />
</font>
</defs>
</svg>
